<svg xmlns="http://www.w3.org/2000/svg" viewBox="0 0 900 154" width="900" height="154" role="img" aria-label="GitHub trophies"><title>GitHub trophies</title>
  <defs>
    <linearGradient id="cg" x1="0" y1="0" x2="1" y2="1">
      <stop offset="0" stop-color="#0E0418"/><stop offset="1" stop-color="#1A0730"/>
    </linearGradient>
    <linearGradient id="ag" x1="0" y1="0" x2="1" y2="0">
      <stop offset="0" stop-color="#FF4FD8"/><stop offset="1" stop-color="#8B5CF6"/>
    </linearGradient>
    <linearGradient id="sh" x1="0" y1="0" x2="1" y2="0">
      <stop offset="0" stop-color="#fff" stop-opacity="0"/>
      <stop offset="0.5" stop-color="#fff" stop-opacity="0.22"/>
      <stop offset="1" stop-color="#fff" stop-opacity="0"/>
    </linearGradient>
    <filter id="gl" x="-60%" y="-60%" width="220%" height="220%"><feGaussianBlur stdDeviation="4"/></filter>
    <clipPath id="cardclip"><rect x="1" y="1" width="898" height="152" rx="14"/></clipPath>
    
  </defs>
  <rect x="1" y="1" width="898" height="152" rx="14" fill="url(#cg)" stroke="url(#ag)" stroke-width="1.6"/><g opacity="0"><animate attributeName="opacity" values="0;1" begin="0.25s" dur="0.4s" fill="freeze"/><g transform="translate(80 77)"><g><animateTransform attributeName="transform" type="scale" values="0.3;1.12;1" keyTimes="0;0.7;1" calcMode="spline" keySplines="0.2 0.9 0.2 1;0.3 0 0.2 1" begin="0.25s" dur="0.55s" fill="freeze"/><rect x="-67" y="-67" width="134" height="134" rx="12" fill="#241039" stroke="#8B5CF6" stroke-opacity="0.5"/><text x="0" y="-30" text-anchor="middle" font-family="'Segoe UI',Ubuntu,Roboto,'Helvetica Neue',Arial,sans-serif" font-size="27" font-weight="700" fill="#8B5CF6" filter="url(#gl)" opacity="0.75">B</text><text x="0" y="-30" text-anchor="middle" font-family="'Segoe UI',Ubuntu,Roboto,'Helvetica Neue',Arial,sans-serif" font-size="27" font-weight="700" fill="#F3E6FF">B</text><g transform="translate(0 14)"><g><path d="M-10 -14h20v6c0 6.2-4.4 10.6-10 10.6S-10 -1.8-10 -8Z" fill="#8B5CF6" opacity="0.92"/><path d="M-10 -12h-5.5c0 6 2.6 8.6 5.8 9.2" fill="none" stroke="#8B5CF6" stroke-width="2" stroke-linecap="round"/><path d="M10 -12h5.5c0 6-2.6 8.6-5.8 9.2" fill="none" stroke="#8B5CF6" stroke-width="2" stroke-linecap="round"/><rect x="-2.6" y="2" width="5.2" height="6" fill="#8B5CF6" opacity="0.92"/><rect x="-9" y="8" width="18" height="3.6" rx="1.6" fill="#8B5CF6" opacity="0.92"/></g></g><text x="0" y="52" text-anchor="middle" font-family="'Segoe UI',Ubuntu,Roboto,'Helvetica Neue',Arial,sans-serif" font-size="11.5" font-weight="600" fill="#C3A6E0">Commits</text><circle cx="0" cy="-30" r="0" fill="none" stroke="#8B5CF6" stroke-width="1"><animate attributeName="r" values="10;30" begin="0.55s" dur="0.9s" fill="freeze"/><animate attributeName="opacity" values="0.7;0" begin="0.55s" dur="0.9s" fill="freeze"/></circle></g></g></g><g opacity="0"><animate attributeName="opacity" values="0;1" begin="0.38s" dur="0.4s" fill="freeze"/><g transform="translate(228 77)"><g><animateTransform attributeName="transform" type="scale" values="0.3;1.12;1" keyTimes="0;0.7;1" calcMode="spline" keySplines="0.2 0.9 0.2 1;0.3 0 0.2 1" begin="0.38s" dur="0.55s" fill="freeze"/><rect x="-67" y="-67" width="134" height="134" rx="12" fill="#241039" stroke="#FF4FD8" stroke-opacity="0.5"/><text x="0" y="-30" text-anchor="middle" font-family="'Segoe UI',Ubuntu,Roboto,'Helvetica Neue',Arial,sans-serif" font-size="27" font-weight="700" fill="#FF4FD8" filter="url(#gl)" opacity="0.75">A</text><text x="0" y="-30" text-anchor="middle" font-family="'Segoe UI',Ubuntu,Roboto,'Helvetica Neue',Arial,sans-serif" font-size="27" font-weight="700" fill="#F3E6FF">A</text><g transform="translate(0 14)"><g><path d="M-10 -14h20v6c0 6.2-4.4 10.6-10 10.6S-10 -1.8-10 -8Z" fill="#FF4FD8" opacity="0.92"/><path d="M-10 -12h-5.5c0 6 2.6 8.6 5.8 9.2" fill="none" stroke="#FF4FD8" stroke-width="2" stroke-linecap="round"/><path d="M10 -12h5.5c0 6-2.6 8.6-5.8 9.2" fill="none" stroke="#FF4FD8" stroke-width="2" stroke-linecap="round"/><rect x="-2.6" y="2" width="5.2" height="6" fill="#FF4FD8" opacity="0.92"/><rect x="-9" y="8" width="18" height="3.6" rx="1.6" fill="#FF4FD8" opacity="0.92"/></g></g><text x="0" y="52" text-anchor="middle" font-family="'Segoe UI',Ubuntu,Roboto,'Helvetica Neue',Arial,sans-serif" font-size="11.5" font-weight="600" fill="#C3A6E0">Repositories</text><circle cx="0" cy="-30" r="0" fill="none" stroke="#FF4FD8" stroke-width="1"><animate attributeName="r" values="10;30" begin="0.68s" dur="0.9s" fill="freeze"/><animate attributeName="opacity" values="0.7;0" begin="0.68s" dur="0.9s" fill="freeze"/></circle></g></g></g><g opacity="0"><animate attributeName="opacity" values="0;1" begin="0.51s" dur="0.4s" fill="freeze"/><g transform="translate(376 77)"><g><animateTransform attributeName="transform" type="scale" values="0.3;1.12;1" keyTimes="0;0.7;1" calcMode="spline" keySplines="0.2 0.9 0.2 1;0.3 0 0.2 1" begin="0.51s" dur="0.55s" fill="freeze"/><rect x="-67" y="-67" width="134" height="134" rx="12" fill="#241039" stroke="#67E8F9" stroke-opacity="0.5"/><text x="0" y="-30" text-anchor="middle" font-family="'Segoe UI',Ubuntu,Roboto,'Helvetica Neue',Arial,sans-serif" font-size="27" font-weight="700" fill="#67E8F9" filter="url(#gl)" opacity="0.75">C</text><text x="0" y="-30" text-anchor="middle" font-family="'Segoe UI',Ubuntu,Roboto,'Helvetica Neue',Arial,sans-serif" font-size="27" font-weight="700" fill="#F3E6FF">C</text><g transform="translate(0 14)"><g><path d="M-10 -14h20v6c0 6.2-4.4 10.6-10 10.6S-10 -1.8-10 -8Z" fill="#67E8F9" opacity="0.92"/><path d="M-10 -12h-5.5c0 6 2.6 8.6 5.8 9.2" fill="none" stroke="#67E8F9" stroke-width="2" stroke-linecap="round"/><path d="M10 -12h5.5c0 6-2.6 8.6-5.8 9.2" fill="none" stroke="#67E8F9" stroke-width="2" stroke-linecap="round"/><rect x="-2.6" y="2" width="5.2" height="6" fill="#67E8F9" opacity="0.92"/><rect x="-9" y="8" width="18" height="3.6" rx="1.6" fill="#67E8F9" opacity="0.92"/></g></g><text x="0" y="52" text-anchor="middle" font-family="'Segoe UI',Ubuntu,Roboto,'Helvetica Neue',Arial,sans-serif" font-size="11.5" font-weight="600" fill="#C3A6E0">Stars</text><circle cx="0" cy="-30" r="0" fill="none" stroke="#67E8F9" stroke-width="1"><animate attributeName="r" values="10;30" begin="0.81s" dur="0.9s" fill="freeze"/><animate attributeName="opacity" values="0.7;0" begin="0.81s" dur="0.9s" fill="freeze"/></circle></g></g></g><g opacity="0"><animate attributeName="opacity" values="0;1" begin="0.64s" dur="0.4s" fill="freeze"/><g transform="translate(524 77)"><g><animateTransform attributeName="transform" type="scale" values="0.3;1.12;1" keyTimes="0;0.7;1" calcMode="spline" keySplines="0.2 0.9 0.2 1;0.3 0 0.2 1" begin="0.64s" dur="0.55s" fill="freeze"/><rect x="-67" y="-67" width="134" height="134" rx="12" fill="#241039" stroke="#8B5CF6" stroke-opacity="0.5"/><text x="0" y="-30" text-anchor="middle" font-family="'Segoe UI',Ubuntu,Roboto,'Helvetica Neue',Arial,sans-serif" font-size="27" font-weight="700" fill="#8B5CF6" filter="url(#gl)" opacity="0.75">B</text><text x="0" y="-30" text-anchor="middle" font-family="'Segoe UI',Ubuntu,Roboto,'Helvetica Neue',Arial,sans-serif" font-size="27" font-weight="700" fill="#F3E6FF">B</text><g transform="translate(0 14)"><g><path d="M-10 -14h20v6c0 6.2-4.4 10.6-10 10.6S-10 -1.8-10 -8Z" fill="#8B5CF6" opacity="0.92"/><path d="M-10 -12h-5.5c0 6 2.6 8.6 5.8 9.2" fill="none" stroke="#8B5CF6" stroke-width="2" stroke-linecap="round"/><path d="M10 -12h5.5c0 6-2.6 8.6-5.8 9.2" fill="none" stroke="#8B5CF6" stroke-width="2" stroke-linecap="round"/><rect x="-2.6" y="2" width="5.2" height="6" fill="#8B5CF6" opacity="0.92"/><rect x="-9" y="8" width="18" height="3.6" rx="1.6" fill="#8B5CF6" opacity="0.92"/></g></g><text x="0" y="52" text-anchor="middle" font-family="'Segoe UI',Ubuntu,Roboto,'Helvetica Neue',Arial,sans-serif" font-size="11.5" font-weight="600" fill="#C3A6E0">Followers</text><circle cx="0" cy="-30" r="0" fill="none" stroke="#8B5CF6" stroke-width="1"><animate attributeName="r" values="10;30" begin="0.94s" dur="0.9s" fill="freeze"/><animate attributeName="opacity" values="0.7;0" begin="0.94s" dur="0.9s" fill="freeze"/></circle></g></g></g><g opacity="0"><animate attributeName="opacity" values="0;1" begin="0.77s" dur="0.4s" fill="freeze"/><g transform="translate(672 77)"><g><animateTransform attributeName="transform" type="scale" values="0.3;1.12;1" keyTimes="0;0.7;1" calcMode="spline" keySplines="0.2 0.9 0.2 1;0.3 0 0.2 1" begin="0.77s" dur="0.55s" fill="freeze"/><rect x="-67" y="-67" width="134" height="134" rx="12" fill="#241039" stroke="#FF4FD8" stroke-opacity="0.5"/><text x="0" y="-30" text-anchor="middle" font-family="'Segoe UI',Ubuntu,Roboto,'Helvetica Neue',Arial,sans-serif" font-size="27" font-weight="700" fill="#FF4FD8" filter="url(#gl)" opacity="0.75">A</text><text x="0" y="-30" text-anchor="middle" font-family="'Segoe UI',Ubuntu,Roboto,'Helvetica Neue',Arial,sans-serif" font-size="27" font-weight="700" fill="#F3E6FF">A</text><g transform="translate(0 14)"><g><path d="M-10 -14h20v6c0 6.2-4.4 10.6-10 10.6S-10 -1.8-10 -8Z" fill="#FF4FD8" opacity="0.92"/><path d="M-10 -12h-5.5c0 6 2.6 8.6 5.8 9.2" fill="none" stroke="#FF4FD8" stroke-width="2" stroke-linecap="round"/><path d="M10 -12h5.5c0 6-2.6 8.6-5.8 9.2" fill="none" stroke="#FF4FD8" stroke-width="2" stroke-linecap="round"/><rect x="-2.6" y="2" width="5.2" height="6" fill="#FF4FD8" opacity="0.92"/><rect x="-9" y="8" width="18" height="3.6" rx="1.6" fill="#FF4FD8" opacity="0.92"/></g></g><text x="0" y="52" text-anchor="middle" font-family="'Segoe UI',Ubuntu,Roboto,'Helvetica Neue',Arial,sans-serif" font-size="11.5" font-weight="600" fill="#C3A6E0">Pull Requests</text><circle cx="0" cy="-30" r="0" fill="none" stroke="#FF4FD8" stroke-width="1"><animate attributeName="r" values="10;30" begin="1.07s" dur="0.9s" fill="freeze"/><animate attributeName="opacity" values="0.7;0" begin="1.07s" dur="0.9s" fill="freeze"/></circle></g></g></g><g opacity="0"><animate attributeName="opacity" values="0;1" begin="0.90s" dur="0.4s" fill="freeze"/><g transform="translate(820 77)"><g><animateTransform attributeName="transform" type="scale" values="0.3;1.12;1" keyTimes="0;0.7;1" calcMode="spline" keySplines="0.2 0.9 0.2 1;0.3 0 0.2 1" begin="0.90s" dur="0.55s" fill="freeze"/><rect x="-67" y="-67" width="134" height="134" rx="12" fill="#241039" stroke="#8B5CF6" stroke-opacity="0.5"/><text x="0" y="-30" text-anchor="middle" font-family="'Segoe UI',Ubuntu,Roboto,'Helvetica Neue',Arial,sans-serif" font-size="27" font-weight="700" fill="#8B5CF6" filter="url(#gl)" opacity="0.75">B</text><text x="0" y="-30" text-anchor="middle" font-family="'Segoe UI',Ubuntu,Roboto,'Helvetica Neue',Arial,sans-serif" font-size="27" font-weight="700" fill="#F3E6FF">B</text><g transform="translate(0 14)"><g><path d="M-10 -14h20v6c0 6.2-4.4 10.6-10 10.6S-10 -1.8-10 -8Z" fill="#8B5CF6" opacity="0.92"/><path d="M-10 -12h-5.5c0 6 2.6 8.6 5.8 9.2" fill="none" stroke="#8B5CF6" stroke-width="2" stroke-linecap="round"/><path d="M10 -12h5.5c0 6-2.6 8.6-5.8 9.2" fill="none" stroke="#8B5CF6" stroke-width="2" stroke-linecap="round"/><rect x="-2.6" y="2" width="5.2" height="6" fill="#8B5CF6" opacity="0.92"/><rect x="-9" y="8" width="18" height="3.6" rx="1.6" fill="#8B5CF6" opacity="0.92"/></g></g><text x="0" y="52" text-anchor="middle" font-family="'Segoe UI',Ubuntu,Roboto,'Helvetica Neue',Arial,sans-serif" font-size="11.5" font-weight="600" fill="#C3A6E0">Experience</text><circle cx="0" cy="-30" r="0" fill="none" stroke="#8B5CF6" stroke-width="1"><animate attributeName="r" values="10;30" begin="1.20s" dur="0.9s" fill="freeze"/><animate attributeName="opacity" values="0.7;0" begin="1.20s" dur="0.9s" fill="freeze"/></circle></g></g></g><g clip-path="url(#cardclip)"><rect x="-360" y="0" width="270" height="154" fill="url(#sh)" transform="skewX(-18)"><animate attributeName="x" values="-450;990;990" keyTimes="0;0.4;1" dur="4.4s" begin="1.8s" repeatCount="indefinite"/></rect></g></svg>
